<svg xmlns="http://www.w3.org/2000/svg" viewBox="0 0 640 360" role="img">
  <title>Synthetic daily likely-hate rate</title>
  <rect width="640" height="360" fill="#faf8f2"/>
  <g stroke="#d5dde1" stroke-width="1">
    <line x1="64" y1="48" x2="64" y2="300"/>
    <line x1="64" y1="300" x2="600" y2="300"/>
    <line x1="64" y1="236" x2="600" y2="236"/>
    <line x1="64" y1="172" x2="600" y2="172"/>
    <line x1="64" y1="108" x2="600" y2="108"/>
  </g>
  <polyline
    fill="none"
    stroke="#017b7e"
    stroke-width="3"
    stroke-linejoin="round"
    stroke-linecap="round"
    points="80,248 140,236 200,228 260,240 320,220 380,200 440,188 500,150 560,132"
  />
  <g fill="#017b7e">
    <circle cx="80" cy="248" r="4"/>
    <circle cx="140" cy="236" r="4"/>
    <circle cx="200" cy="228" r="4"/>
    <circle cx="260" cy="240" r="4"/>
    <circle cx="320" cy="220" r="4"/>
    <circle cx="380" cy="200" r="4"/>
    <circle cx="440" cy="188" r="4"/>
    <circle cx="500" cy="150" r="4"/>
    <circle cx="560" cy="132" r="4"/>
  </g>
  <text x="64" y="332" fill="#5b6874" font-family="Inter, sans-serif" font-size="14">1 Aug</text>
  <text x="540" y="332" fill="#5b6874" font-family="Inter, sans-serif" font-size="14">16 Aug</text>
  <text x="16" y="176" fill="#5b6874" font-family="Inter, sans-serif" font-size="12">rate</text>
</svg>
